<svg xmlns="http://www.w3.org/2000/svg" width="640" height="490" viewBox="0 0 640 490" xmlns:xlink="http://www.w3.org/1999/xlink">
  <defs>
    <rect id="b" width="600" height="450"/>
    <filter id="a" width="200%" height="200%" x="-50%" y="-50%" filterUnits="objectBoundingBox">
      <feOffset dy="10" in="SourceAlpha" result="shadowOffsetOuter1"/>
      <feGaussianBlur stdDeviation="10" in="shadowOffsetOuter1" result="shadowBlurOuter1"/>
      <feColorMatrix values="0 0 0 0 0 0 0 0 0 0 0 0 0 0 0 0 0 0 0.11 0" in="shadowBlurOuter1" result="shadowMatrixOuter1"/>
      <feOffset dy="1" in="SourceAlpha" result="shadowOffsetOuter2"/>
      <feGaussianBlur stdDeviation="1.5" in="shadowOffsetOuter2" result="shadowBlurOuter2"/>
      <feColorMatrix values="0 0 0 0 0 0 0 0 0 0 0 0 0 0 0 0 0 0 0.08 0" in="shadowBlurOuter2" result="shadowMatrixOuter2"/>
      <feMerge>
        <feMergeNode in="shadowMatrixOuter1"/>
        <feMergeNode in="shadowMatrixOuter2"/>
      </feMerge>
    </filter>
  </defs>
  <g fill="none" fill-rule="evenodd" transform="translate(20 10)">
    <use fill="black" filter="url(#a)" xlink:href="#b"/>
    <use fill="#191919" xlink:href="#b"/>
    <rect width="600" height="37" fill="#2D2D2D" rx="2"/>
    <circle cx="11.5" cy="18.5" r="3.5" fill="#FC625D"/>
    <circle cx="26.5" cy="18.5" r="3.5" fill="#FEC141"/>
    <circle cx="41.5" cy="18.5" r="3.5" fill="#35CD4B"/>
    <rect width="121" height="351" x="449" y="57" fill="#212121"/>
    <rect width="257" height="351" x="172" y="57" fill="#212121"/>
    <rect width="53" height="53" x="182" y="77" fill="#2E2E2E" rx="2"/>
    <rect width="46" height="23" x="30" y="57" fill="#975BE8" rx="11.5"/>
    <rect width="46" height="23" x="84" y="57" fill="#A15AE8" rx="11.5"/>
    <rect width="66" height="23" x="30" y="87" fill="#AB5AE8" rx="11.5"/>
    <rect width="46" height="23" x="104" y="87" fill="#B45AE8" rx="11.5"/>
    <rect width="61" height="23" x="30" y="118" fill="#BE5AE8" rx="11.5"/>
    <rect width="46" height="23" x="99" y="118" fill="#C75AE8" rx="11.5"/>
    <text fill="#FFFFFF" font-family="SFUIText-Heavy, SF UI Text" font-size="12" font-weight="600">
      <tspan x="245" y="96">Frank Ocean</tspan>
    </text>
    <text fill="#FFFFFF" font-family="SFUIText-Heavy, SF UI Text" font-size="10" font-weight="600">
      <tspan x="245" y="111">Heaven</tspan>
    </text>
    <rect width="237" height="25" x="182" y="149" fill="#333333" rx="3"/>
    <rect width="237" height="25" x="182" y="179" fill="#2E2E2E" rx="3"/>
    <rect width="237" height="25" x="182" y="209" fill="#282828" rx="3"/>
    <circle cx="194.5" cy="161.5" r="6.5" fill="#975BE8"/>
    <rect width="85" height="23" x="30" y="175" fill="#975BE8" rx="11.5"/>
    <rect width="125" height="23" x="30" y="206" fill="#A15AE8" rx="11.5"/>
    <rect width="125" height="23" x="30" y="237" fill="#AB5AE8" rx="11.5"/>
    <rect width="111" height="23" x="30" y="268" fill="#B45AE8" rx="11.5"/>
    <rect width="105" height="23" x="30" y="299" fill="#BE5AE8" rx="11.5"/>
    <rect width="115" height="23" x="30" y="330" fill="#C75AE8" rx="11.5"/>
    <rect width="95" height="23" x="30" y="361" fill="#D15AE8" rx="11.5"/>
  </g>
</svg>
